<svg width="27" height="27" viewBox="0 0 27 27" fill="none" xmlns="http://www.w3.org/2000/svg">
<rect width="27" height="27" rx="6" fill="#8A84FC"/>
<path d="M17.0346 9.03411C15.6523 9.2101 14.3983 10.0791 13.7603 11.2964C13.0746 12.6091 13.0673 14.0391 13.742 15.3444C15.0803 17.9367 18.5746 18.4721 20.6463 16.4004C21.3283 15.7221 21.7243 14.9264 21.8746 13.9438C21.9993 13.1298 21.871 12.2644 21.508 11.4981C20.705 9.79676 18.89 8.79944 17.0346 9.03411Z" fill="#3C32FA"/>
<path d="M8.56822 9.08905C7.39856 9.30171 6.33888 10.0094 5.68989 11.0104C4.70356 12.5357 4.78054 14.512 5.88421 15.9677C6.62122 16.9467 7.75054 17.559 9.01554 17.669L9.31622 17.6947V13.3607V9.03038L9.08888 9.03405C8.96054 9.03405 8.72588 9.05971 8.56822 9.08905Z" fill="#3C32FA"/>
</svg>
