<svg width="119" height="39" viewBox="0 0 119 39" fill="none" xmlns="http://www.w3.org/2000/svg">
<rect y="6" width="27" height="27" rx="6" fill="#8A84FC"/>
<path d="M17.0346 15.0341C15.6523 15.2101 14.3983 16.0791 13.7603 17.2964C13.0746 18.6091 13.0673 20.0391 13.742 21.3444C15.0803 23.9367 18.5746 24.4721 20.6463 22.4004C21.3283 21.7221 21.7243 20.9264 21.8746 19.9438C21.9993 19.1298 21.871 18.2644 21.508 17.4981C20.705 15.7968 18.89 14.7994 17.0346 15.0341Z" fill="#3C32FA"/>
<path d="M8.56822 15.089C7.39856 15.3017 6.33888 16.0094 5.68989 17.0104C4.70356 18.5357 4.78054 20.512 5.88421 21.9677C6.62122 22.9467 7.75054 23.559 9.01554 23.669L9.31622 23.6947V19.3607V15.0304L9.08888 15.034C8.96054 15.034 8.72588 15.0597 8.56822 15.089Z" fill="#3C32FA"/>
<path d="M53.796 29H50.832L41.914 15.506V29H38.95V10.904H41.914L50.832 24.372V10.904H53.796V29ZM65.4623 29.234C64.1103 29.234 62.8883 28.9307 61.7963 28.324C60.7043 27.7 59.8463 26.8333 59.2223 25.724C58.5983 24.5973 58.2863 23.2973 58.2863 21.824C58.2863 20.368 58.6069 19.0767 59.2483 17.95C59.8896 16.8233 60.7649 15.9567 61.8743 15.35C62.9836 14.7433 64.2229 14.44 65.5923 14.44C66.9616 14.44 68.2009 14.7433 69.3103 15.35C70.4196 15.9567 71.2949 16.8233 71.9363 17.95C72.5776 19.0767 72.8983 20.368 72.8983 21.824C72.8983 23.28 72.5689 24.5713 71.9103 25.698C71.2516 26.8247 70.3503 27.7 69.2063 28.324C68.0796 28.9307 66.8316 29.234 65.4623 29.234ZM65.4623 26.66C66.2249 26.66 66.9356 26.478 67.5943 26.114C68.2703 25.75 68.8163 25.204 69.2323 24.476C69.6483 23.748 69.8563 22.864 69.8563 21.824C69.8563 20.784 69.6569 19.9087 69.2583 19.198C68.8596 18.47 68.3309 17.924 67.6723 17.56C67.0136 17.196 66.3029 17.014 65.5403 17.014C64.7776 17.014 64.0669 17.196 63.4083 17.56C62.7669 17.924 62.2556 18.47 61.8743 19.198C61.4929 19.9087 61.3023 20.784 61.3023 21.824C61.3023 23.3667 61.6923 24.5627 62.4723 25.412C63.2696 26.244 64.2663 26.66 65.4623 26.66ZM80.8464 17.092V25.022C80.8464 25.5593 80.9677 25.9493 81.2104 26.192C81.4704 26.4173 81.9037 26.53 82.5104 26.53H84.3304V29H81.9904C80.6557 29 79.633 28.688 78.9224 28.064C78.2117 27.44 77.8564 26.426 77.8564 25.022V17.092H76.1664V14.674H77.8564V11.112H80.8464V14.674H84.3304V17.092H80.8464ZM101.752 21.486C101.752 22.0233 101.718 22.5087 101.648 22.942H90.7022C90.7889 24.086 91.2135 25.0047 91.9762 25.698C92.7389 26.3913 93.6749 26.738 94.7842 26.738C96.3789 26.738 97.5055 26.0707 98.1642 24.736H101.362C100.929 26.0533 100.14 27.1367 98.9962 27.986C97.8695 28.818 96.4655 29.234 94.7842 29.234C93.4149 29.234 92.1842 28.9307 91.0922 28.324C90.0175 27.7 89.1682 26.8333 88.5442 25.724C87.9375 24.5973 87.6342 23.2973 87.6342 21.824C87.6342 20.3507 87.9289 19.0593 88.5182 17.95C89.1249 16.8233 89.9655 15.9567 91.0402 15.35C92.1322 14.7433 93.3802 14.44 94.7842 14.44C96.1362 14.44 97.3409 14.7347 98.3982 15.324C99.4555 15.9133 100.279 16.7453 100.868 17.82C101.458 18.8773 101.752 20.0993 101.752 21.486ZM98.6582 20.55C98.6409 19.458 98.2509 18.5827 97.4882 17.924C96.7255 17.2653 95.7809 16.936 94.6542 16.936C93.6315 16.936 92.7562 17.2653 92.0282 17.924C91.3002 18.5653 90.8669 19.4407 90.7282 20.55H98.6582ZM111.429 29.234C110.302 29.234 109.288 29.0347 108.387 28.636C107.503 28.22 106.801 27.6653 106.281 26.972C105.761 26.2613 105.484 25.4727 105.449 24.606H108.517C108.569 25.2127 108.855 25.724 109.375 26.14C109.912 26.5387 110.58 26.738 111.377 26.738C112.209 26.738 112.85 26.582 113.301 26.27C113.769 25.9407 114.003 25.5247 114.003 25.022C114.003 24.4847 113.743 24.086 113.223 23.826C112.72 23.566 111.914 23.28 110.805 22.968C109.73 22.6733 108.855 22.3873 108.179 22.11C107.503 21.8327 106.914 21.408 106.411 20.836C105.926 20.264 105.683 19.51 105.683 18.574C105.683 17.8113 105.908 17.118 106.359 16.494C106.81 15.8527 107.451 15.35 108.283 14.986C109.132 14.622 110.103 14.44 111.195 14.44C112.824 14.44 114.133 14.856 115.121 15.688C116.126 16.5027 116.664 17.6207 116.733 19.042H113.769C113.717 18.4007 113.457 17.8893 112.989 17.508C112.521 17.1267 111.888 16.936 111.091 16.936C110.311 16.936 109.713 17.0833 109.297 17.378C108.881 17.6727 108.673 18.0627 108.673 18.548C108.673 18.9293 108.812 19.25 109.089 19.51C109.366 19.77 109.704 19.978 110.103 20.134C110.502 20.2727 111.091 20.4547 111.871 20.68C112.911 20.9573 113.76 21.2433 114.419 21.538C115.095 21.8153 115.676 22.2313 116.161 22.786C116.646 23.3407 116.898 24.0773 116.915 24.996C116.915 25.8107 116.69 26.5387 116.239 27.18C115.788 27.8213 115.147 28.324 114.315 28.688C113.5 29.052 112.538 29.234 111.429 29.234Z" fill="white"/>
</svg>
